<?xml version='1.0' encoding='utf-8'?>
<!DOCTYPE svg PUBLIC '-//W3C//DTD SVG 1.1//EN' 'http://www.w3.org/Graphics/SVG/1.1/DTD/svg11.dtd'>
<svg version="1.1" xmlns="http://www.w3.org/2000/svg" viewBox="0 0 512 512" xmlns:xlink="http://www.w3.org/1999/xlink" enable-background="new 0 0 512 512">
  <g>
    <g>
      <path d="m256,458.1c-5.9-2-188.4-60.9-202.4-333 7,0.5 122.3,11.2 202.4-63.7 78.9,73.8 195.4,64.1 202.4,63.7-17.2,280.2-196.5,331-202.4,333zm223.7-376.8c-42.7,6.5-139.7,11-210.1-64.4-7.3-7.9-19.8-7.9-27.1-7.10543e-15-70.5,75.4-167.5,70.9-210.2,64.4-11.4-1.8-21.6,7.2-21.3,18.7 9.9,350.5 245,401 245,401s235.1-50.4 245-401c0.3-11.5-9.9-20.5-21.3-18.7z"/>
      <text fill="rgba(255,255,255,0.1)" stroke="black" stroke-width="2px" text-anchor="middle" x="50%" y="50%" style="font-size: 15vh; font-family: Cinzel; font-weight: 700; text-shadow: 3px 3px 0 black, -1px -1px 0 black, 1px -1px 0 black, -1px 1px 0 black, 1px 1px 0 black">
        SAS
      </text>
    </g>
  </g>
</svg>