<?xml version="1.0" standalone="no"?>
<!DOCTYPE svg PUBLIC "-//W3C//DTD SVG 20010904//EN"
 "http://www.w3.org/TR/2001/REC-SVG-20010904/DTD/svg10.dtd">
<svg version="1.0" xmlns="http://www.w3.org/2000/svg"
 width="432.000000pt" height="512.000000pt" viewBox="0 0 432.000000 512.000000"
 preserveAspectRatio="xMidYMid meet">

<g transform="translate(0.000000,512.000000) scale(0.100000,-0.100000)"
fill="#000000" stroke="none">
<path d="M2040 5065 c-148 -75 -359 -175 -371 -175 -5 0 -27 -9 -48 -19 -41
-22 -366 -145 -471 -179 -81 -26 -329 -91 -390 -102 -25 -4 -103 -19 -175 -33
-71 -14 -161 -30 -200 -35 -38 -6 -126 -20 -195 -31 -69 -12 -140 -24 -159
-27 l-33 -5 6 -187 c4 -103 11 -266 16 -362 5 -96 14 -272 20 -390 21 -405 38
-543 101 -815 59 -259 125 -478 210 -695 22 -58 47 -123 56 -145 33 -88 151
-306 249 -460 24 -38 47 -77 51 -85 13 -29 207 -300 266 -370 119 -144 339
-364 448 -450 17 -14 41 -34 53 -45 126 -118 268 -224 428 -321 164 -98 244
-135 272 -124 45 18 153 71 188 92 20 13 69 43 110 67 40 24 100 64 133 89 55
42 233 189 245 202 3 3 52 46 110 97 94 81 229 215 331 329 51 57 199 252 199
263 0 5 4 11 8 13 5 2 28 32 52 68 24 36 46 67 49 70 3 3 12 16 20 30 8 14 36
60 63 103 26 43 48 81 48 84 0 3 14 25 30 50 49 73 155 301 233 505 113 290
211 689 257 1038 12 87 34 496 65 1207 l7 142 -39 6 c-21 3 -85 15 -143 25
-58 11 -139 24 -180 30 -142 20 -405 71 -525 101 -196 49 -515 153 -592 193
-18 9 -37 16 -43 16 -14 0 -257 110 -468 211 -90 44 -169 79 -175 78 -7 0 -59
-24 -117 -54z m282 -209 c386 -186 611 -276 918 -364 101 -29 308 -76 380 -86
57 -9 401 -66 460 -77 98 -19 90 -5 90 -142 0 -67 -7 -248 -15 -402 -8 -154
-17 -338 -20 -410 -11 -280 -34 -452 -97 -725 -53 -233 -113 -431 -180 -600
-43 -108 -149 -339 -174 -380 -11 -19 -45 -75 -74 -125 -127 -214 -324 -487
-434 -604 -166 -174 -238 -241 -430 -400 -170 -140 -222 -181 -231 -181 -4 0
-27 -13 -52 -30 -24 -16 -46 -30 -49 -30 -3 0 -24 -13 -47 -28 -76 -51 -160
-86 -202 -86 -41 1 -141 46 -201 91 -17 13 -34 23 -37 23 -3 0 -26 14 -50 30
-25 17 -48 30 -52 30 -10 0 -63 42 -270 215 -194 161 -368 332 -472 460 -35
44 -70 87 -76 95 -44 54 -277 402 -277 414 0 2 -19 35 -41 72 -66 109 -153
297 -222 479 -51 135 -140 430 -156 520 -6 28 -21 97 -34 155 -30 129 -34 153
-52 343 -17 185 -32 439 -45 777 -14 341 -13 417 3 423 6 2 46 10 87 16 41 7
125 21 185 31 61 10 146 24 190 31 44 6 130 23 190 37 61 13 137 30 170 36
233 47 724 238 1055 410 47 24 95 45 107 45 13 1 82 -28 155 -63z"/>
<path d="M2040 4719 c-81 -43 -171 -86 -327 -155 -327 -146 -634 -235 -1048
-303 -254 -42 -346 -59 -351 -63 -3 -4 5 -235 26 -678 25 -543 51 -721 162
-1115 17 -60 44 -146 59 -191 16 -44 29 -84 29 -89 0 -10 51 -133 102 -250 33
-75 117 -229 175 -323 102 -165 270 -403 333 -472 64 -69 244 -252 276 -280
244 -212 339 -288 437 -346 27 -16 65 -39 85 -52 21 -12 65 -36 100 -52 59
-28 65 -29 92 -15 16 8 34 15 41 15 16 0 220 124 304 185 39 29 104 80 145
116 41 35 89 75 105 89 37 31 343 337 368 369 46 57 159 213 207 286 30 44 56
82 59 85 7 6 32 47 72 120 16 30 47 85 68 121 180 314 361 917 400 1329 17
182 47 757 53 1042 3 107 3 107 -22 113 -25 7 -388 69 -490 85 -181 27 -518
125 -730 212 -153 62 -400 175 -498 229 -44 23 -86 39 -105 38 -18 0 -75 -23
-127 -50z m70 -1409 c23 -52 51 -113 61 -135 186 -415 273 -598 292 -614 9 -7
34 -19 54 -27 34 -12 17 -13 -167 -13 -185 0 -202 1 -172 14 34 15 41 41 23
87 -5 13 -19 49 -31 81 l-22 57 -148 0 -148 0 -31 -77 c-44 -109 -41 -142 14
-156 11 -2 -43 -5 -120 -5 -131 -1 -138 0 -101 13 22 7 47 22 57 32 14 14 219
461 219 477 0 2 17 42 39 88 21 45 58 129 81 186 24 56 46 99 50 95 4 -5 26
-51 50 -103z m-663 90 l43 0 -6 -62 c-4 -35 -10 -79 -14 -98 l-7 -35 -8 30
c-20 75 -76 115 -164 117 -91 2 -171 -49 -171 -108 0 -54 28 -82 189 -188 220
-145 244 -173 244 -286 0 -159 -105 -255 -293 -267 -142 -9 -280 31 -302 87
-12 30 -3 108 19 161 18 47 33 42 33 -10 0 -87 98 -176 206 -189 99 -11 194
57 194 139 0 51 -38 88 -193 193 -80 54 -162 114 -181 134 -90 89 -79 248 22
333 58 48 107 59 237 54 61 -3 129 -5 152 -5z m1621 0 l44 0 -6 -37 c-3 -21
-8 -64 -11 -96 -4 -31 -11 -55 -16 -52 -5 4 -9 15 -9 26 0 77 -118 131 -224
104 -71 -18 -110 -63 -103 -117 3 -21 11 -46 19 -55 7 -9 84 -63 170 -119 213
-140 240 -171 239 -286 0 -111 -47 -185 -149 -235 -53 -26 -66 -28 -182 -27
-110 0 -132 3 -185 24 -73 31 -88 55 -80 128 5 53 33 137 43 128 3 -3 9 -29
13 -57 11 -70 43 -114 107 -146 104 -51 202 -38 262 35 38 46 40 92 6 137 -14
17 -89 75 -168 127 -148 100 -200 143 -223 188 -37 72 -26 176 28 246 57 75
120 95 272 89 61 -3 130 -5 153 -5z"/>
<path d="M1985 3075 c-10 -22 -37 -87 -60 -145 l-43 -105 115 -3 c64 -1 117
-1 119 1 4 4 -89 247 -106 277 -6 10 -12 4 -25 -25z"/>
</g>
</svg>
